<?xml version="1.0" encoding="utf-8"?>
<!-- Generator: Adobe Illustrator 25.0.1, SVG Export Plug-In . SVG Version: 6.00 Build 0)  -->
<svg version="1.1" id="Capa_1" xmlns="http://www.w3.org/2000/svg" xmlns:xlink="http://www.w3.org/1999/xlink" x="0px" y="0px"
	 viewBox="0 0 1920 1080" style="enable-background:new 0 0 1920 1080;" xml:space="preserve">
<style type="text/css">
	.st0{fill:#FFFFFF;}
	.st1{fill:#B31312;}
</style>
<path class="st0" d="M613.3,498.7h27.6l-10.8,53.8c-6.6,5.1-14.3,9-23,11.8c-8.7,2.7-17.7,4.1-27.1,4.1c-13.1,0-24.5-2.4-34.2-7.1
	c-9.7-4.7-17.2-11.4-22.5-20c-5.3-8.6-7.9-18.5-7.9-29.7c0-14.8,3.4-28.2,10.3-40.2c6.8-12,16.5-21.3,29-28.1
	c12.4-6.8,26.8-10.2,43-10.2c12.5,0,23.3,1.9,32.4,5.8c9.2,3.9,16.5,9.5,22.1,17l-21.7,17.6c-4.4-5.1-9.3-8.8-14.8-11.1
	c-5.5-2.3-12-3.5-19.4-3.5c-10,0-18.7,2.2-26.3,6.6c-7.6,4.4-13.5,10.5-17.7,18.2c-4.2,7.7-6.3,16.4-6.3,26c0,10.1,3.3,18.1,9.8,24
	c6.5,5.9,15.9,8.9,28.1,8.9c7.7,0,14.9-1.6,21.7-4.7L613.3,498.7z"/>
<path class="st0" d="M748.3,538.1h-60.9l-17,28h-32.3l84.6-130.7h29.9l32.1,130.7h-30.3L748.3,538.1z M743.3,515.1l-11-50.4
	l-30.8,50.4H743.3z"/>
<path class="st0" d="M971.7,435.4l-26,130.7h-28.4l15.3-77.7l-49.9,63.9h-13.4l-26.9-64.6l-15.7,78.4h-28.4l26.1-130.7h24.7
	l32.7,81.4l63.9-81.4H971.7z"/>
<path class="st0" d="M1028.1,459.7l-5.6,28.4h60.7l-4.7,23.5h-60.9l-6,30.3h71.4l-5,24.3H976.7l26.1-130.7h98.8l-5,24.3H1028.1z"/>
<path class="st1" d="M1136.2,561.3c-9.8-4.7-17.3-11.4-22.5-20c-5.2-8.6-7.8-18.5-7.8-29.7c0-14.8,3.4-28.2,10.2-40.1
	c6.8-11.9,16.3-21.3,28.7-28.1c12.3-6.8,26.5-10.3,42.4-10.3c11.7,0,22,2,31,6c9,4,15.8,9.7,20.4,17.2l-21.9,17.9
	c-7-10.2-17.5-15.3-31.6-15.3c-9.6,0-18.1,2.2-25.4,6.7c-7.3,4.5-13,10.6-17.1,18.3c-4,7.7-6.1,16.3-6.1,25.8
	c0,10.1,3.2,18.1,9.6,24c6.4,5.9,15.4,8.9,27,8.9c13.8,0,25.4-5,34.7-15.1l17.9,18.3c-13,15.1-31.4,22.6-55.3,22.6
	C1157.4,568.4,1145.9,566,1136.2,561.3z"/>
<path class="st1" d="M1264.8,435.4h30.4l-21.3,106.1h65.6l-5,24.7h-95.8L1264.8,435.4z"/>
<path class="st1" d="M1372.7,556.1c-9.3-8.2-14-19.3-14-33.5c0-4.1,0.5-8.8,1.5-14l14.6-73.2h30.4l-14.6,72.7
	c-0.7,4.1-1.1,7.8-1.1,11c0,7.8,2.1,13.7,6.4,17.7s10.6,5.9,18.8,5.9c9.2,0,16.6-2.7,22-8.2c5.5-5.5,9.5-14.3,12-26.3l14.6-72.7
	h29.7l-14.8,74.5c-8,39-30.3,58.5-66.9,58.5C1394.9,568.4,1382.1,564.3,1372.7,556.1z"/>
<path class="st1" d="M1619.7,508.7c3,4.4,4.6,9.8,4.6,16.2c0,13.6-5.4,23.8-16.1,30.8c-10.7,7-25,10.5-42.8,10.5h-68.5l26.1-130.7
	h63.1c14.1,0,24.9,2.6,32.5,7.8c7.6,5.2,11.4,12.5,11.4,22.1c0,8-2.1,14.8-6.3,20.5c-4.2,5.7-9.9,10-17.1,13
	C1612.4,501,1616.7,504.3,1619.7,508.7z M1587.1,538.5c4.7-3.2,7.1-7.9,7.1-14c0-9-6.5-13.4-19.6-13.4H1538l-6.4,32.3h35.7
	C1575.8,543.4,1582.4,541.7,1587.1,538.5z M1548.5,458.2l-6.2,30.8h30.8c8,0,14.2-1.6,18.6-4.8c4.4-3.2,6.6-7.8,6.6-13.7
	c0-8.2-6.4-12.3-19.2-12.3H1548.5z"/>
<path class="st1" d="M437.9,486.3l-85.9-37l-86-37c-11.9-5.1-24.9,4.6-23.4,17.5l4.1,34.6l0.1,0.7c-4.1,2.8-13.2,6.9-32,7.1
	c0,0,33.8-0.2,32.7-0.6l0,0c0,0,38.6-21.4,43.3-21.8c5.2-0.4,19.5-2.3,31.2,5.1c11.7,7.4,29.6,30.8,60.8,100.2c0.4,1,0.9,2,1.3,2.9
	l57.2-42.7C451.7,507.6,449.8,491.4,437.9,486.3z"/>
<path class="st1" d="M349.3,584c-19.5-2.7-35.4-28.8-90-12.5l5.2,44.2c1.5,12.9,16.4,19.3,26.8,11.5l48.2-36
	c32.1,0.5,31.6-11.3,31.6-11.3C365,585.4,349.3,584,349.3,584z"/>
<path class="st0" d="M318.7,504.3c3.6,0,6.4-2.9,6.4-6.4c0-3.6-2.9-6.4-6.4-6.4c-3.6,0-6.4,2.9-6.4,6.4
	C312.3,501.4,315.1,504.3,318.7,504.3z"/>
<path class="st0" d="M297.9,483.2c-3.6,0-6.4,2.9-6.4,6.4c0,3.6,2.9,6.4,6.4,6.4c3.6,0,6.4-2.9,6.4-6.4
	C304.3,486.1,301.5,483.2,297.9,483.2z"/>
<path class="st0" d="M282.7,510.7c0,3.6,2.9,6.4,6.4,6.4c3.6,0,6.4-2.9,6.4-6.4c0-3.6-2.9-6.4-6.4-6.4
	C285.6,504.3,282.7,507.1,282.7,510.7z"/>
<path class="st0" d="M302.9,518.9c0,3.6,2.9,6.4,6.4,6.4c3.6,0,6.4-2.9,6.4-6.4c0-3.6-2.9-6.4-6.4-6.4
	C305.8,512.4,302.9,515.3,302.9,518.9z"/>
<polygon class="st0" points="228.9,526 217.3,530.1 213.2,518.4 200.8,522.7 204.9,534.4 193.3,538.5 197.6,550.8 209.3,546.7 
	213.3,558.4 225.7,554.1 221.6,542.4 233.2,538.3 "/>
</svg>
