<?xml version="1.0" encoding="utf-8"?>
<!-- Generator: Adobe Illustrator 25.0.1, SVG Export Plug-In . SVG Version: 6.00 Build 0)  -->
<svg version="1.1" id="katman_1" xmlns="http://www.w3.org/2000/svg" xmlns:xlink="http://www.w3.org/1999/xlink" x="0px" y="0px"
	 viewBox="0 0 600 450" style="enable-background:new 0 0 600 450;" xml:space="preserve">
<style type="text/css">
	.st0{fill:#F4F4F4;}
</style>
<g>
	<g>
		<g>
			<path class="st0" d="M180.2,269.3c-9.4,6.2-6.2,18.1,13.7,23.7c20.6,6.9,43.1,8.7,64.9,5c1.2,0,2.5-0.6,3.1-0.6v-21.2l-21.2,6.9
				c-8.1,2.5-16.2,3.1-24.3,1.2c-6.2-1.9-5-5.6,2.5-8.7l43.1-15v-23.1l-60,20.6C194.5,260.6,187,264.3,180.2,269.3z M324.9,175.7
				v60.5c25.6,12.5,45.6,0,45.6-32.4c0-33.1-11.9-48-46.2-59.9c-18.1-6.2-36.8-11.9-55.5-15.6v180.3l43.7,13.1V170.1
				c0-6.9,0-11.9,5-10C324.3,162,324.9,168.8,324.9,175.7z M406.1,255c-18.1-6.2-37.4-8.7-56.2-6.9c-10,0.6-19.3,3.1-28.1,6.2
				L320,255v24.3l40.6-15c8.1-2.5,16.2-3.1,24.3-1.2c6.2,1.9,5,5.6-2.5,8.7L320,294.9v23.7l86.1-31.8c6.2-2.5,11.9-5.6,16.8-10.6
				C427.3,269.9,425.4,261.2,406.1,255z"/>
		</g>
	</g>
</g>
</svg>
