<?xml version="1.0" encoding="utf-8"?>
<!-- Generator: Adobe Illustrator 25.0.1, SVG Export Plug-In . SVG Version: 6.00 Build 0)  -->
<svg version="1.1" id="katman_1" xmlns="http://www.w3.org/2000/svg" xmlns:xlink="http://www.w3.org/1999/xlink" x="0px" y="0px"
	 viewBox="0 0 600 450" style="enable-background:new 0 0 600 450;" xml:space="preserve">
<style type="text/css">
	.st0{fill:#F4F4F4;}
</style>
<g>
	<path class="st0" d="M286.3,87.4c-72,0-131.1,55.6-136.8,126.2l73.6,30.4c6.3-4.3,13.7-6.7,21.8-6.7c0.8,0,1.4,0,2.2,0l32.8-47.5
		c0-0.2,0-0.4,0-0.6c0-28.5,23.2-51.8,51.8-51.8c28.5,0,51.8,23.2,51.8,51.8S360.3,241,331.7,241c-0.4,0-0.8,0-1.2,0l-46.7,33.4
		c0,0.6,0,1.2,0,1.8c0,21.4-17.5,38.9-38.9,38.9c-18.8,0-34.6-13.3-38.1-31.2l-52.6-21.8c16.3,57.7,69.3,99.9,132.1,99.9
		c75.8,0,137.2-61.4,137.2-137.2C423.5,148.8,362.1,87.4,286.3,87.4"/>
	<path class="st0" d="M235.5,295.6l-16.9-6.9c2.9,6.3,8.2,11.4,15.1,14.3c14.9,6.1,32-0.8,38.1-15.7c2.9-7.3,2.9-15.1,0-22.4
		s-8.6-12.8-15.7-15.9c-7.1-2.9-14.7-2.9-21.4-0.4l17.5,7.3c11,4.5,16.1,17.1,11.6,28.1C259,295.1,246.5,300.4,235.5,295.6"/>
	<path class="st0" d="M366,189.2c0-19-15.5-34.6-34.6-34.6c-19,0-34.6,15.5-34.6,34.6s15.5,34.6,34.6,34.6S366,208.3,366,189.2
		 M305.7,189.2c0-14.3,11.6-25.9,25.9-25.9s25.9,11.6,25.9,25.9s-11.6,25.9-25.9,25.9C317.3,215.2,305.7,203.6,305.7,189.2"/>
</g>
</svg>
