<?xml version="1.0" encoding="utf-8"?>
<!-- Generator: Adobe Illustrator 25.0.1, SVG Export Plug-In . SVG Version: 6.00 Build 0)  -->
<svg version="1.1" id="katman_1" xmlns="http://www.w3.org/2000/svg" xmlns:xlink="http://www.w3.org/1999/xlink" x="0px" y="0px"
	 viewBox="0 0 600 450" style="enable-background:new 0 0 600 450;" xml:space="preserve">
<style type="text/css">
	.st0{fill:#F4F4F4;}
</style>
<g>
	<path class="st0" d="M289.2,119.3c2.7-1.6,40.1-22.8,67.7-22.8c6-0.2,11.9,1.2,17.1,4.2c-51.1-34.9-118.4-34.9-169.6,0
		c5.2-2.9,11.1-4.4,17.1-4.2C249.1,96.4,286.5,117.7,289.2,119.3z"/>
	<path class="st0" d="M248.3,157.9c0,0-39.5-41.4-60.2-40.9c-1.7-0.1-3.3,0.3-4.8,1l0,0c-54.8,54.3-59.6,141.3-11.2,201.3
		c-1.9-4.6-3-9.4-3-14.4C169,286.9,183.9,238.8,248.3,157.9z"/>
	<path class="st0" d="M390.3,117c-20.7-0.6-60.2,40.8-60.2,40.8c64.3,80.9,79.3,129,79.3,147.1c-0.1,4.9-1.1,9.8-3,14.4
		c48.4-60.1,43.6-147-11.2-201.3l0,0C393.7,117.2,392,116.9,390.3,117z"/>
	<path class="st0" d="M392.6,325.1c-6.1-50.1-99-126.9-103.4-130.4c-4.4,3.6-97.3,80.4-103.4,130.4c-0.4,4.6,1,9.2,4,12.8
		c56.8,50,141.9,50,198.8,0C391.5,334.4,393,329.8,392.6,325.1z"/>
</g>
</svg>
